<mxfile host="app.diagrams.net" modified="2024-07-08T10:23:06.658Z" agent="Mozilla/5.0 (X11; Ubuntu; Linux x86_64; rv:126.0) Gecko/20100101 Firefox/126.0" etag="fK6Ml1xtKssHc6LKatS_" version="24.6.4" type="github" pages="5">
  <diagram id="roS_Kup9yPFagp73fmL6" name="Services">
    <mxGraphModel dx="1434" dy="728" grid="1" gridSize="10" guides="1" tooltips="1" connect="1" arrows="1" fold="1" page="1" pageScale="1" pageWidth="850" pageHeight="1100" math="0" shadow="0">
      <root>
        <mxCell id="0" />
        <mxCell id="1" parent="0" />
        <mxCell id="1UiepgfDsdqD1uGe9CKE-2" value="Messenger" style="shape=module;align=left;spacingLeft=20;align=center;verticalAlign=top;whiteSpace=wrap;html=1;" parent="1" vertex="1">
          <mxGeometry x="220" y="270" width="100" height="50" as="geometry" />
        </mxCell>
        <mxCell id="1UiepgfDsdqD1uGe9CKE-3" value="RabbitMQ" style="shape=module;align=left;spacingLeft=20;align=center;verticalAlign=top;whiteSpace=wrap;html=1;" parent="1" vertex="1">
          <mxGeometry x="220" y="350" width="100" height="50" as="geometry" />
        </mxCell>
        <mxCell id="1UiepgfDsdqD1uGe9CKE-5" value="Web socket manager" style="shape=module;align=left;spacingLeft=20;align=center;verticalAlign=top;whiteSpace=wrap;html=1;" parent="1" vertex="1">
          <mxGeometry x="400" y="270" width="100" height="50" as="geometry" />
        </mxCell>
        <mxCell id="1UiepgfDsdqD1uGe9CKE-6" value="AWS S3" style="shape=module;align=left;spacingLeft=20;align=center;verticalAlign=top;whiteSpace=wrap;html=1;" parent="1" vertex="1">
          <mxGeometry x="400" y="350" width="100" height="50" as="geometry" />
        </mxCell>
      </root>
    </mxGraphModel>
  </diagram>
  <diagram id="UC9x-kM82dkbMaK_0GT8" name="Atividades">
    <mxGraphModel dx="989" dy="502" grid="1" gridSize="10" guides="1" tooltips="1" connect="1" arrows="1" fold="1" page="1" pageScale="1" pageWidth="850" pageHeight="1100" math="0" shadow="0">
      <root>
        <mxCell id="0" />
        <mxCell id="1" parent="0" />
        <mxCell id="-DZc3njQ09tnFV7pPwey-29" value="" style="edgeStyle=orthogonalEdgeStyle;rounded=0;orthogonalLoop=1;jettySize=auto;html=1;" edge="1" parent="1" source="-DZc3njQ09tnFV7pPwey-27" target="-DZc3njQ09tnFV7pPwey-28">
          <mxGeometry relative="1" as="geometry" />
        </mxCell>
        <mxCell id="-DZc3njQ09tnFV7pPwey-27" value="" style="ellipse;whiteSpace=wrap;html=1;aspect=fixed;" vertex="1" parent="1">
          <mxGeometry x="660" y="20" width="80" height="80" as="geometry" />
        </mxCell>
        <mxCell id="-DZc3njQ09tnFV7pPwey-31" value="" style="edgeStyle=orthogonalEdgeStyle;rounded=0;orthogonalLoop=1;jettySize=auto;html=1;" edge="1" parent="1" source="-DZc3njQ09tnFV7pPwey-28" target="-DZc3njQ09tnFV7pPwey-30">
          <mxGeometry relative="1" as="geometry" />
        </mxCell>
        <mxCell id="-DZc3njQ09tnFV7pPwey-28" value="Visualiza a lista de chats" style="whiteSpace=wrap;html=1;" vertex="1" parent="1">
          <mxGeometry x="640" y="190" width="120" height="60" as="geometry" />
        </mxCell>
        <mxCell id="-DZc3njQ09tnFV7pPwey-33" value="" style="edgeStyle=orthogonalEdgeStyle;rounded=0;orthogonalLoop=1;jettySize=auto;html=1;" edge="1" parent="1" source="-DZc3njQ09tnFV7pPwey-30" target="-DZc3njQ09tnFV7pPwey-32">
          <mxGeometry relative="1" as="geometry" />
        </mxCell>
        <mxCell id="-DZc3njQ09tnFV7pPwey-35" value="" style="edgeStyle=orthogonalEdgeStyle;rounded=0;orthogonalLoop=1;jettySize=auto;html=1;" edge="1" parent="1" source="-DZc3njQ09tnFV7pPwey-30" target="-DZc3njQ09tnFV7pPwey-34">
          <mxGeometry relative="1" as="geometry" />
        </mxCell>
        <mxCell id="-DZc3njQ09tnFV7pPwey-37" value="" style="edgeStyle=orthogonalEdgeStyle;rounded=0;orthogonalLoop=1;jettySize=auto;html=1;" edge="1" parent="1" source="-DZc3njQ09tnFV7pPwey-30" target="-DZc3njQ09tnFV7pPwey-36">
          <mxGeometry relative="1" as="geometry" />
        </mxCell>
        <mxCell id="-DZc3njQ09tnFV7pPwey-30" value="" style="rhombus;whiteSpace=wrap;html=1;" vertex="1" parent="1">
          <mxGeometry x="660" y="320" width="80" height="80" as="geometry" />
        </mxCell>
        <mxCell id="-DZc3njQ09tnFV7pPwey-43" style="edgeStyle=orthogonalEdgeStyle;rounded=0;orthogonalLoop=1;jettySize=auto;html=1;entryX=1;entryY=0.5;entryDx=0;entryDy=0;" edge="1" parent="1" source="-DZc3njQ09tnFV7pPwey-32" target="-DZc3njQ09tnFV7pPwey-40">
          <mxGeometry relative="1" as="geometry">
            <Array as="points">
              <mxPoint x="860" y="650" />
            </Array>
          </mxGeometry>
        </mxCell>
        <mxCell id="-DZc3njQ09tnFV7pPwey-32" value="Entra no chat de um grupo" style="whiteSpace=wrap;html=1;" vertex="1" parent="1">
          <mxGeometry x="800" y="330" width="120" height="60" as="geometry" />
        </mxCell>
        <mxCell id="-DZc3njQ09tnFV7pPwey-39" value="" style="edgeStyle=orthogonalEdgeStyle;rounded=0;orthogonalLoop=1;jettySize=auto;html=1;entryX=0;entryY=0.5;entryDx=0;entryDy=0;" edge="1" parent="1" source="-DZc3njQ09tnFV7pPwey-34" target="-DZc3njQ09tnFV7pPwey-36">
          <mxGeometry relative="1" as="geometry">
            <mxPoint x="540" y="490" as="targetPoint" />
            <Array as="points">
              <mxPoint x="540" y="520" />
            </Array>
          </mxGeometry>
        </mxCell>
        <mxCell id="-DZc3njQ09tnFV7pPwey-34" value="Pesquisa um novo contato" style="whiteSpace=wrap;html=1;" vertex="1" parent="1">
          <mxGeometry x="480" y="330" width="120" height="60" as="geometry" />
        </mxCell>
        <mxCell id="-DZc3njQ09tnFV7pPwey-42" style="edgeStyle=orthogonalEdgeStyle;rounded=0;orthogonalLoop=1;jettySize=auto;html=1;entryX=0.5;entryY=0;entryDx=0;entryDy=0;" edge="1" parent="1" source="-DZc3njQ09tnFV7pPwey-36" target="-DZc3njQ09tnFV7pPwey-40">
          <mxGeometry relative="1" as="geometry" />
        </mxCell>
        <mxCell id="-DZc3njQ09tnFV7pPwey-36" value="Entra no chat privado de algum contato" style="whiteSpace=wrap;html=1;" vertex="1" parent="1">
          <mxGeometry x="640" y="490" width="120" height="60" as="geometry" />
        </mxCell>
        <mxCell id="-DZc3njQ09tnFV7pPwey-45" value="" style="edgeStyle=orthogonalEdgeStyle;rounded=0;orthogonalLoop=1;jettySize=auto;html=1;" edge="1" parent="1" source="-DZc3njQ09tnFV7pPwey-40" target="-DZc3njQ09tnFV7pPwey-44">
          <mxGeometry relative="1" as="geometry" />
        </mxCell>
        <mxCell id="-DZc3njQ09tnFV7pPwey-40" value="Visualiza as mensagens do chat" style="whiteSpace=wrap;html=1;" vertex="1" parent="1">
          <mxGeometry x="640" y="620" width="120" height="60" as="geometry" />
        </mxCell>
        <mxCell id="-DZc3njQ09tnFV7pPwey-47" value="" style="edgeStyle=orthogonalEdgeStyle;rounded=0;orthogonalLoop=1;jettySize=auto;html=1;" edge="1" parent="1" source="-DZc3njQ09tnFV7pPwey-44" target="-DZc3njQ09tnFV7pPwey-46">
          <mxGeometry relative="1" as="geometry" />
        </mxCell>
        <mxCell id="-DZc3njQ09tnFV7pPwey-44" value="Envia uma mensagem" style="whiteSpace=wrap;html=1;" vertex="1" parent="1">
          <mxGeometry x="640" y="760" width="120" height="60" as="geometry" />
        </mxCell>
        <mxCell id="-DZc3njQ09tnFV7pPwey-51" value="" style="edgeStyle=orthogonalEdgeStyle;rounded=0;orthogonalLoop=1;jettySize=auto;html=1;" edge="1" parent="1" source="-DZc3njQ09tnFV7pPwey-46" target="-DZc3njQ09tnFV7pPwey-50">
          <mxGeometry relative="1" as="geometry" />
        </mxCell>
        <mxCell id="-DZc3njQ09tnFV7pPwey-46" value="Envia uma mensagem com arquivo" style="whiteSpace=wrap;html=1;" vertex="1" parent="1">
          <mxGeometry x="840" y="760" width="120" height="60" as="geometry" />
        </mxCell>
        <mxCell id="-DZc3njQ09tnFV7pPwey-53" value="" style="edgeStyle=orthogonalEdgeStyle;rounded=0;orthogonalLoop=1;jettySize=auto;html=1;" edge="1" parent="1" source="-DZc3njQ09tnFV7pPwey-50" target="-DZc3njQ09tnFV7pPwey-52">
          <mxGeometry relative="1" as="geometry" />
        </mxCell>
        <mxCell id="-DZc3njQ09tnFV7pPwey-50" value="Apaga uma mensagem para si mesmo" style="whiteSpace=wrap;html=1;" vertex="1" parent="1">
          <mxGeometry x="840" y="870" width="120" height="60" as="geometry" />
        </mxCell>
        <mxCell id="-DZc3njQ09tnFV7pPwey-57" value="" style="edgeStyle=orthogonalEdgeStyle;rounded=0;orthogonalLoop=1;jettySize=auto;html=1;" edge="1" parent="1" source="-DZc3njQ09tnFV7pPwey-52" target="-DZc3njQ09tnFV7pPwey-56">
          <mxGeometry relative="1" as="geometry" />
        </mxCell>
        <mxCell id="-DZc3njQ09tnFV7pPwey-52" value="Apaga uma mensagem para todos" style="whiteSpace=wrap;html=1;" vertex="1" parent="1">
          <mxGeometry x="640" y="870" width="120" height="60" as="geometry" />
        </mxCell>
        <mxCell id="-DZc3njQ09tnFV7pPwey-59" value="" style="edgeStyle=orthogonalEdgeStyle;rounded=0;orthogonalLoop=1;jettySize=auto;html=1;" edge="1" parent="1" source="-DZc3njQ09tnFV7pPwey-56" target="-DZc3njQ09tnFV7pPwey-58">
          <mxGeometry relative="1" as="geometry" />
        </mxCell>
        <mxCell id="-DZc3njQ09tnFV7pPwey-56" value="Recebe uma mensagem" style="whiteSpace=wrap;html=1;" vertex="1" parent="1">
          <mxGeometry x="640" y="980" width="120" height="60" as="geometry" />
        </mxCell>
        <mxCell id="-DZc3njQ09tnFV7pPwey-58" value="" style="ellipse;whiteSpace=wrap;html=1;" vertex="1" parent="1">
          <mxGeometry x="660" y="1100" width="80" height="80" as="geometry" />
        </mxCell>
        <mxCell id="-DZc3njQ09tnFV7pPwey-60" value="Sender" style="swimlane;whiteSpace=wrap;html=1;" vertex="1" parent="1">
          <mxGeometry x="1140" y="60" width="200" height="290" as="geometry" />
        </mxCell>
        <mxCell id="zo8MfTo_ztOVx8sZ8wZx-2" value="Envia uma mensagem" style="whiteSpace=wrap;html=1;" vertex="1" parent="-DZc3njQ09tnFV7pPwey-60">
          <mxGeometry x="40" y="50" width="120" height="60" as="geometry" />
        </mxCell>
        <mxCell id="-DZc3njQ09tnFV7pPwey-61" value="Messenger" style="swimlane;whiteSpace=wrap;html=1;" vertex="1" parent="1">
          <mxGeometry x="1340" y="60" width="200" height="290" as="geometry" />
        </mxCell>
        <mxCell id="e7LK3ClmJlGuCw8vTbdR-4" value="" style="edgeStyle=orthogonalEdgeStyle;rounded=0;orthogonalLoop=1;jettySize=auto;html=1;" edge="1" parent="-DZc3njQ09tnFV7pPwey-61" source="e7LK3ClmJlGuCw8vTbdR-1" target="e7LK3ClmJlGuCw8vTbdR-3">
          <mxGeometry relative="1" as="geometry" />
        </mxCell>
        <mxCell id="e7LK3ClmJlGuCw8vTbdR-1" value="Recebe a mensagem" style="whiteSpace=wrap;html=1;" vertex="1" parent="-DZc3njQ09tnFV7pPwey-61">
          <mxGeometry x="40" y="50" width="120" height="60" as="geometry" />
        </mxCell>
        <mxCell id="e7LK3ClmJlGuCw8vTbdR-3" value="Distribuí a mensagem para os destinatários" style="whiteSpace=wrap;html=1;" vertex="1" parent="-DZc3njQ09tnFV7pPwey-61">
          <mxGeometry x="40" y="190" width="120" height="60" as="geometry" />
        </mxCell>
        <mxCell id="-DZc3njQ09tnFV7pPwey-62" value="Receiper" style="swimlane;whiteSpace=wrap;html=1;" vertex="1" parent="1">
          <mxGeometry x="1540" y="60" width="200" height="290" as="geometry" />
        </mxCell>
        <mxCell id="e7LK3ClmJlGuCw8vTbdR-6" value="Recebe a mensagem" style="whiteSpace=wrap;html=1;" vertex="1" parent="-DZc3njQ09tnFV7pPwey-62">
          <mxGeometry x="40" y="190" width="120" height="60" as="geometry" />
        </mxCell>
        <mxCell id="zo8MfTo_ztOVx8sZ8wZx-3" value="" style="edgeStyle=orthogonalEdgeStyle;rounded=0;orthogonalLoop=1;jettySize=auto;html=1;" edge="1" parent="1" source="zo8MfTo_ztOVx8sZ8wZx-1" target="zo8MfTo_ztOVx8sZ8wZx-2">
          <mxGeometry relative="1" as="geometry" />
        </mxCell>
        <mxCell id="zo8MfTo_ztOVx8sZ8wZx-1" value="" style="ellipse;whiteSpace=wrap;html=1;aspect=fixed;" vertex="1" parent="1">
          <mxGeometry x="1040" y="100" width="80" height="80" as="geometry" />
        </mxCell>
        <mxCell id="e7LK3ClmJlGuCw8vTbdR-2" value="" style="edgeStyle=orthogonalEdgeStyle;rounded=0;orthogonalLoop=1;jettySize=auto;html=1;" edge="1" parent="1" source="zo8MfTo_ztOVx8sZ8wZx-2" target="e7LK3ClmJlGuCw8vTbdR-1">
          <mxGeometry relative="1" as="geometry" />
        </mxCell>
        <mxCell id="e7LK3ClmJlGuCw8vTbdR-7" value="" style="edgeStyle=orthogonalEdgeStyle;rounded=0;orthogonalLoop=1;jettySize=auto;html=1;" edge="1" parent="1" source="e7LK3ClmJlGuCw8vTbdR-3" target="e7LK3ClmJlGuCw8vTbdR-6">
          <mxGeometry relative="1" as="geometry" />
        </mxCell>
        <mxCell id="e7LK3ClmJlGuCw8vTbdR-8" value="" style="ellipse;whiteSpace=wrap;html=1;" vertex="1" parent="1">
          <mxGeometry x="1800" y="240" width="80" height="80" as="geometry" />
        </mxCell>
        <mxCell id="e7LK3ClmJlGuCw8vTbdR-9" value="" style="edgeStyle=orthogonalEdgeStyle;rounded=0;orthogonalLoop=1;jettySize=auto;html=1;" edge="1" parent="1" source="e7LK3ClmJlGuCw8vTbdR-6" target="e7LK3ClmJlGuCw8vTbdR-8">
          <mxGeometry relative="1" as="geometry" />
        </mxCell>
      </root>
    </mxGraphModel>
  </diagram>
  <diagram name="MER" id="JGsqoCKsip8_ewpknH3V">
    <mxGraphModel dx="2154" dy="662" grid="1" gridSize="10" guides="1" tooltips="1" connect="1" arrows="1" fold="1" page="1" pageScale="1" pageWidth="850" pageHeight="1100" math="0" shadow="0">
      <root>
        <mxCell id="0" />
        <mxCell id="1" parent="0" />
        <mxCell id="BYT0Egh5Gax-voZJujH6-16" value="1:1" style="edgeStyle=orthogonalEdgeStyle;rounded=0;orthogonalLoop=1;jettySize=auto;html=1;" edge="1" parent="1" source="BYT0Egh5Gax-voZJujH6-7" target="BYT0Egh5Gax-voZJujH6-15">
          <mxGeometry relative="1" as="geometry" />
        </mxCell>
        <mxCell id="BYT0Egh5Gax-voZJujH6-7" value="Private Chat" style="whiteSpace=wrap;html=1;rounded=0;" vertex="1" parent="1">
          <mxGeometry x="60" y="240" width="120" height="60" as="geometry" />
        </mxCell>
        <mxCell id="BYT0Egh5Gax-voZJujH6-18" value="0:n" style="edgeStyle=orthogonalEdgeStyle;rounded=0;orthogonalLoop=1;jettySize=auto;html=1;" edge="1" parent="1" source="BYT0Egh5Gax-voZJujH6-15" target="BYT0Egh5Gax-voZJujH6-17">
          <mxGeometry relative="1" as="geometry" />
        </mxCell>
        <mxCell id="BYT0Egh5Gax-voZJujH6-15" value="has" style="rhombus;whiteSpace=wrap;html=1;rounded=0;" vertex="1" parent="1">
          <mxGeometry x="280" y="230" width="80" height="80" as="geometry" />
        </mxCell>
        <mxCell id="BYT0Egh5Gax-voZJujH6-20" value="0:n" style="edgeStyle=orthogonalEdgeStyle;rounded=0;orthogonalLoop=1;jettySize=auto;html=1;" edge="1" parent="1" source="BYT0Egh5Gax-voZJujH6-17" target="BYT0Egh5Gax-voZJujH6-19">
          <mxGeometry relative="1" as="geometry" />
        </mxCell>
        <mxCell id="BYT0Egh5Gax-voZJujH6-24" value="" style="edgeStyle=orthogonalEdgeStyle;rounded=0;orthogonalLoop=1;jettySize=auto;html=1;" edge="1" parent="1" source="BYT0Egh5Gax-voZJujH6-17" target="BYT0Egh5Gax-voZJujH6-23">
          <mxGeometry relative="1" as="geometry" />
        </mxCell>
        <mxCell id="BYT0Egh5Gax-voZJujH6-17" value="Private &lt;span lang=&quot;en&quot; class=&quot;HwtZe&quot;&gt;&lt;span class=&quot;jCAhz JxVs2d ChMk0b&quot;&gt;&lt;span class=&quot;ryNqvb&quot;&gt;Message&lt;/span&gt;&lt;/span&gt;&lt;/span&gt;" style="whiteSpace=wrap;html=1;rounded=0;" vertex="1" parent="1">
          <mxGeometry x="420" y="240" width="120" height="60" as="geometry" />
        </mxCell>
        <mxCell id="BYT0Egh5Gax-voZJujH6-22" value="1:1" style="edgeStyle=orthogonalEdgeStyle;rounded=0;orthogonalLoop=1;jettySize=auto;html=1;" edge="1" parent="1" source="BYT0Egh5Gax-voZJujH6-19" target="BYT0Egh5Gax-voZJujH6-21">
          <mxGeometry relative="1" as="geometry" />
        </mxCell>
        <mxCell id="BYT0Egh5Gax-voZJujH6-19" value="&lt;span lang=&quot;en&quot; class=&quot;HwtZe&quot;&gt;&lt;span class=&quot;jCAhz JxVs2d ChMk0b&quot;&gt;&lt;span class=&quot;ryNqvb&quot;&gt;sent by&lt;/span&gt;&lt;/span&gt;&lt;/span&gt;" style="rhombus;whiteSpace=wrap;html=1;rounded=0;" vertex="1" parent="1">
          <mxGeometry x="440" y="90" width="80" height="80" as="geometry" />
        </mxCell>
        <mxCell id="BYT0Egh5Gax-voZJujH6-21" value="Conversant" style="whiteSpace=wrap;html=1;rounded=0;" vertex="1" parent="1">
          <mxGeometry x="640" y="240" width="120" height="60" as="geometry" />
        </mxCell>
        <mxCell id="BYT0Egh5Gax-voZJujH6-26" value="1:1" style="edgeStyle=orthogonalEdgeStyle;rounded=0;orthogonalLoop=1;jettySize=auto;html=1;entryX=0.5;entryY=1;entryDx=0;entryDy=0;" edge="1" parent="1" source="BYT0Egh5Gax-voZJujH6-23" target="BYT0Egh5Gax-voZJujH6-21">
          <mxGeometry relative="1" as="geometry">
            <mxPoint x="480" y="540" as="targetPoint" />
          </mxGeometry>
        </mxCell>
        <mxCell id="BYT0Egh5Gax-voZJujH6-23" value="&lt;span lang=&quot;en&quot; class=&quot;HwtZe&quot;&gt;&lt;span class=&quot;jCAhz JxVs2d&quot;&gt;&lt;span class=&quot;ryNqvb&quot;&gt;&lt;/span&gt;&lt;/span&gt;&lt;span class=&quot;jCAhz JxVs2d ChMk0b&quot;&gt;&lt;span class=&quot;ryNqvb&quot;&gt;received by&lt;/span&gt;&lt;/span&gt;&lt;/span&gt;" style="rhombus;whiteSpace=wrap;html=1;rounded=0;" vertex="1" parent="1">
          <mxGeometry x="440" y="370" width="80" height="80" as="geometry" />
        </mxCell>
        <mxCell id="BYT0Egh5Gax-voZJujH6-46" value="1:1" style="edgeStyle=orthogonalEdgeStyle;rounded=0;orthogonalLoop=1;jettySize=auto;html=1;startArrow=classic;startFill=1;endArrow=none;endFill=0;" edge="1" parent="1" source="BYT0Egh5Gax-voZJujH6-27" target="BYT0Egh5Gax-voZJujH6-45">
          <mxGeometry relative="1" as="geometry" />
        </mxCell>
        <mxCell id="BYT0Egh5Gax-voZJujH6-48" value="1:1" style="edgeStyle=orthogonalEdgeStyle;rounded=0;orthogonalLoop=1;jettySize=auto;html=1;endArrow=none;endFill=0;startArrow=classic;startFill=1;" edge="1" parent="1" source="BYT0Egh5Gax-voZJujH6-27" target="BYT0Egh5Gax-voZJujH6-47">
          <mxGeometry relative="1" as="geometry" />
        </mxCell>
        <mxCell id="BYT0Egh5Gax-voZJujH6-27" value="Chat" style="whiteSpace=wrap;html=1;rounded=0;" vertex="1" parent="1">
          <mxGeometry x="-170" y="450" width="120" height="60" as="geometry" />
        </mxCell>
        <mxCell id="BYT0Egh5Gax-voZJujH6-31" value="1:1" style="edgeStyle=orthogonalEdgeStyle;rounded=0;orthogonalLoop=1;jettySize=auto;html=1;" edge="1" parent="1" source="BYT0Egh5Gax-voZJujH6-32" target="BYT0Egh5Gax-voZJujH6-34">
          <mxGeometry relative="1" as="geometry" />
        </mxCell>
        <mxCell id="BYT0Egh5Gax-voZJujH6-52" value="0:n" style="edgeStyle=orthogonalEdgeStyle;rounded=0;orthogonalLoop=1;jettySize=auto;html=1;" edge="1" parent="1" source="BYT0Egh5Gax-voZJujH6-32" target="BYT0Egh5Gax-voZJujH6-51">
          <mxGeometry relative="1" as="geometry" />
        </mxCell>
        <mxCell id="BYT0Egh5Gax-voZJujH6-32" value="&lt;span lang=&quot;en&quot; class=&quot;HwtZe&quot;&gt;&lt;span class=&quot;jCAhz JxVs2d ChMk0b&quot;&gt;&lt;span class=&quot;ryNqvb&quot;&gt;Group Chat&lt;/span&gt;&lt;/span&gt;&lt;/span&gt;" style="whiteSpace=wrap;html=1;rounded=0;" vertex="1" parent="1">
          <mxGeometry x="60" y="650" width="120" height="60" as="geometry" />
        </mxCell>
        <mxCell id="BYT0Egh5Gax-voZJujH6-33" value="0:n" style="edgeStyle=orthogonalEdgeStyle;rounded=0;orthogonalLoop=1;jettySize=auto;html=1;" edge="1" parent="1" source="BYT0Egh5Gax-voZJujH6-34" target="BYT0Egh5Gax-voZJujH6-37">
          <mxGeometry relative="1" as="geometry" />
        </mxCell>
        <mxCell id="BYT0Egh5Gax-voZJujH6-34" value="has" style="rhombus;whiteSpace=wrap;html=1;rounded=0;" vertex="1" parent="1">
          <mxGeometry x="280" y="640" width="80" height="80" as="geometry" />
        </mxCell>
        <mxCell id="BYT0Egh5Gax-voZJujH6-35" value="0:n" style="edgeStyle=orthogonalEdgeStyle;rounded=0;orthogonalLoop=1;jettySize=auto;html=1;" edge="1" parent="1" source="BYT0Egh5Gax-voZJujH6-37" target="BYT0Egh5Gax-voZJujH6-39">
          <mxGeometry relative="1" as="geometry" />
        </mxCell>
        <mxCell id="BYT0Egh5Gax-voZJujH6-36" value="" style="edgeStyle=orthogonalEdgeStyle;rounded=0;orthogonalLoop=1;jettySize=auto;html=1;" edge="1" parent="1" source="BYT0Egh5Gax-voZJujH6-37" target="BYT0Egh5Gax-voZJujH6-42">
          <mxGeometry relative="1" as="geometry" />
        </mxCell>
        <mxCell id="BYT0Egh5Gax-voZJujH6-37" value="&lt;span lang=&quot;en&quot; class=&quot;HwtZe&quot;&gt;&lt;span class=&quot;jCAhz JxVs2d ChMk0b&quot;&gt;&lt;span class=&quot;ryNqvb&quot;&gt;Group&lt;/span&gt;&lt;/span&gt;&lt;/span&gt; &lt;span lang=&quot;en&quot; class=&quot;HwtZe&quot;&gt;&lt;span class=&quot;jCAhz JxVs2d ChMk0b&quot;&gt;&lt;span class=&quot;ryNqvb&quot;&gt;Message&lt;/span&gt;&lt;/span&gt;&lt;/span&gt;" style="whiteSpace=wrap;html=1;rounded=0;" vertex="1" parent="1">
          <mxGeometry x="420" y="650" width="120" height="60" as="geometry" />
        </mxCell>
        <mxCell id="BYT0Egh5Gax-voZJujH6-38" value="1:1" style="edgeStyle=orthogonalEdgeStyle;rounded=0;orthogonalLoop=1;jettySize=auto;html=1;" edge="1" parent="1" source="BYT0Egh5Gax-voZJujH6-39" target="BYT0Egh5Gax-voZJujH6-40">
          <mxGeometry relative="1" as="geometry" />
        </mxCell>
        <mxCell id="BYT0Egh5Gax-voZJujH6-39" value="&lt;span lang=&quot;en&quot; class=&quot;HwtZe&quot;&gt;&lt;span class=&quot;jCAhz JxVs2d ChMk0b&quot;&gt;&lt;span class=&quot;ryNqvb&quot;&gt;sent by&lt;/span&gt;&lt;/span&gt;&lt;/span&gt;" style="rhombus;whiteSpace=wrap;html=1;rounded=0;" vertex="1" parent="1">
          <mxGeometry x="440" y="500" width="80" height="80" as="geometry" />
        </mxCell>
        <mxCell id="BYT0Egh5Gax-voZJujH6-40" value="Conversant" style="whiteSpace=wrap;html=1;rounded=0;" vertex="1" parent="1">
          <mxGeometry x="640" y="650" width="120" height="60" as="geometry" />
        </mxCell>
        <mxCell id="BYT0Egh5Gax-voZJujH6-41" value="1:n" style="edgeStyle=orthogonalEdgeStyle;rounded=0;orthogonalLoop=1;jettySize=auto;html=1;entryX=0.5;entryY=1;entryDx=0;entryDy=0;" edge="1" parent="1" source="BYT0Egh5Gax-voZJujH6-42" target="BYT0Egh5Gax-voZJujH6-40">
          <mxGeometry relative="1" as="geometry">
            <mxPoint x="480" y="950" as="targetPoint" />
          </mxGeometry>
        </mxCell>
        <mxCell id="BYT0Egh5Gax-voZJujH6-42" value="&lt;span lang=&quot;en&quot; class=&quot;HwtZe&quot;&gt;&lt;span class=&quot;jCAhz JxVs2d&quot;&gt;&lt;span class=&quot;ryNqvb&quot;&gt;&lt;/span&gt;&lt;/span&gt;&lt;span class=&quot;jCAhz JxVs2d ChMk0b&quot;&gt;&lt;span class=&quot;ryNqvb&quot;&gt;received by&lt;/span&gt;&lt;/span&gt;&lt;/span&gt;" style="rhombus;whiteSpace=wrap;html=1;rounded=0;" vertex="1" parent="1">
          <mxGeometry x="440" y="780" width="80" height="80" as="geometry" />
        </mxCell>
        <mxCell id="BYT0Egh5Gax-voZJujH6-50" value="0:1" style="edgeStyle=orthogonalEdgeStyle;rounded=0;orthogonalLoop=1;jettySize=auto;html=1;entryX=0;entryY=0.5;entryDx=0;entryDy=0;startArrow=classic;startFill=1;endArrow=none;endFill=0;" edge="1" parent="1" source="BYT0Egh5Gax-voZJujH6-45" target="BYT0Egh5Gax-voZJujH6-7">
          <mxGeometry relative="1" as="geometry">
            <Array as="points">
              <mxPoint x="-110" y="270" />
            </Array>
          </mxGeometry>
        </mxCell>
        <mxCell id="BYT0Egh5Gax-voZJujH6-45" value="is" style="rhombus;whiteSpace=wrap;html=1;rounded=0;" vertex="1" parent="1">
          <mxGeometry x="-150" y="300" width="80" height="80" as="geometry" />
        </mxCell>
        <mxCell id="BYT0Egh5Gax-voZJujH6-49" value="0:1" style="edgeStyle=orthogonalEdgeStyle;rounded=0;orthogonalLoop=1;jettySize=auto;html=1;entryX=0;entryY=0.5;entryDx=0;entryDy=0;endArrow=none;endFill=0;startArrow=classic;startFill=1;" edge="1" parent="1" source="BYT0Egh5Gax-voZJujH6-47" target="BYT0Egh5Gax-voZJujH6-32">
          <mxGeometry relative="1" as="geometry">
            <Array as="points">
              <mxPoint x="-110" y="680" />
            </Array>
          </mxGeometry>
        </mxCell>
        <mxCell id="BYT0Egh5Gax-voZJujH6-47" value="is" style="rhombus;whiteSpace=wrap;html=1;rounded=0;" vertex="1" parent="1">
          <mxGeometry x="-150" y="580" width="80" height="80" as="geometry" />
        </mxCell>
        <mxCell id="BYT0Egh5Gax-voZJujH6-54" value="0:n" style="edgeStyle=orthogonalEdgeStyle;rounded=0;orthogonalLoop=1;jettySize=auto;html=1;" edge="1" parent="1" source="BYT0Egh5Gax-voZJujH6-51" target="BYT0Egh5Gax-voZJujH6-53">
          <mxGeometry relative="1" as="geometry" />
        </mxCell>
        <mxCell id="BYT0Egh5Gax-voZJujH6-51" value="has" style="rhombus;whiteSpace=wrap;html=1;rounded=0;" vertex="1" parent="1">
          <mxGeometry x="80" y="780" width="80" height="80" as="geometry" />
        </mxCell>
        <mxCell id="BYT0Egh5Gax-voZJujH6-53" value="Conversant" style="whiteSpace=wrap;html=1;rounded=0;" vertex="1" parent="1">
          <mxGeometry x="60" y="950" width="120" height="60" as="geometry" />
        </mxCell>
        <mxCell id="aVvKcj2lCzMX1V1Kk-TO-7" value="Private Chat" style="whiteSpace=wrap;html=1;rounded=0;" vertex="1" parent="1">
          <mxGeometry x="-100" y="1270" width="120" height="60" as="geometry" />
        </mxCell>
        <mxCell id="aVvKcj2lCzMX1V1Kk-TO-10" value="0:n" style="edgeStyle=orthogonalEdgeStyle;rounded=0;orthogonalLoop=1;jettySize=auto;html=1;" edge="1" parent="1" source="aVvKcj2lCzMX1V1Kk-TO-12" target="aVvKcj2lCzMX1V1Kk-TO-14">
          <mxGeometry relative="1" as="geometry" />
        </mxCell>
        <mxCell id="n2geMu9k5A_3AqIn-y-W-6" value="1:1" style="edgeStyle=orthogonalEdgeStyle;rounded=0;orthogonalLoop=1;jettySize=auto;html=1;" edge="1" parent="1" source="aVvKcj2lCzMX1V1Kk-TO-12" target="n2geMu9k5A_3AqIn-y-W-5">
          <mxGeometry relative="1" as="geometry" />
        </mxCell>
        <mxCell id="aVvKcj2lCzMX1V1Kk-TO-12" value="&lt;span lang=&quot;en&quot; class=&quot;HwtZe&quot;&gt;&lt;span class=&quot;jCAhz JxVs2d ChMk0b&quot;&gt;&lt;span class=&quot;ryNqvb&quot;&gt;Message&lt;/span&gt;&lt;/span&gt;&lt;/span&gt;" style="whiteSpace=wrap;html=1;rounded=0;" vertex="1" parent="1">
          <mxGeometry x="270" y="1550" width="120" height="60" as="geometry" />
        </mxCell>
        <mxCell id="aVvKcj2lCzMX1V1Kk-TO-13" value="1:1" style="edgeStyle=orthogonalEdgeStyle;rounded=0;orthogonalLoop=1;jettySize=auto;html=1;" edge="1" parent="1" source="aVvKcj2lCzMX1V1Kk-TO-14" target="aVvKcj2lCzMX1V1Kk-TO-15">
          <mxGeometry relative="1" as="geometry" />
        </mxCell>
        <mxCell id="aVvKcj2lCzMX1V1Kk-TO-14" value="&lt;span lang=&quot;en&quot; class=&quot;HwtZe&quot;&gt;&lt;span class=&quot;jCAhz JxVs2d ChMk0b&quot;&gt;&lt;span class=&quot;ryNqvb&quot;&gt;sent by&lt;/span&gt;&lt;/span&gt;&lt;/span&gt;" style="rhombus;whiteSpace=wrap;html=1;rounded=0;" vertex="1" parent="1">
          <mxGeometry x="460" y="1540" width="80" height="80" as="geometry" />
        </mxCell>
        <mxCell id="aVvKcj2lCzMX1V1Kk-TO-15" value="Conversant" style="whiteSpace=wrap;html=1;rounded=0;" vertex="1" parent="1">
          <mxGeometry x="620" y="1550" width="120" height="60" as="geometry" />
        </mxCell>
        <mxCell id="aVvKcj2lCzMX1V1Kk-TO-18" value="1:1" style="edgeStyle=orthogonalEdgeStyle;rounded=0;orthogonalLoop=1;jettySize=auto;html=1;startArrow=classic;startFill=1;endArrow=none;endFill=0;" edge="1" parent="1" source="aVvKcj2lCzMX1V1Kk-TO-20" target="aVvKcj2lCzMX1V1Kk-TO-35">
          <mxGeometry relative="1" as="geometry" />
        </mxCell>
        <mxCell id="aVvKcj2lCzMX1V1Kk-TO-19" value="1:1" style="edgeStyle=orthogonalEdgeStyle;rounded=0;orthogonalLoop=1;jettySize=auto;html=1;endArrow=none;endFill=0;startArrow=classic;startFill=1;" edge="1" parent="1" source="aVvKcj2lCzMX1V1Kk-TO-20" target="aVvKcj2lCzMX1V1Kk-TO-37">
          <mxGeometry relative="1" as="geometry" />
        </mxCell>
        <mxCell id="aVvKcj2lCzMX1V1Kk-TO-20" value="Chat" style="whiteSpace=wrap;html=1;rounded=0;" vertex="1" parent="1">
          <mxGeometry x="-100" y="1550" width="120" height="60" as="geometry" />
        </mxCell>
        <mxCell id="aVvKcj2lCzMX1V1Kk-TO-22" value="0:n" style="edgeStyle=orthogonalEdgeStyle;rounded=0;orthogonalLoop=1;jettySize=auto;html=1;exitX=1;exitY=0.5;exitDx=0;exitDy=0;" edge="1" parent="1" source="aVvKcj2lCzMX1V1Kk-TO-23" target="aVvKcj2lCzMX1V1Kk-TO-39">
          <mxGeometry relative="1" as="geometry">
            <mxPoint x="150" y="1740" as="sourcePoint" />
          </mxGeometry>
        </mxCell>
        <mxCell id="aVvKcj2lCzMX1V1Kk-TO-23" value="&lt;span lang=&quot;en&quot; class=&quot;HwtZe&quot;&gt;&lt;span class=&quot;jCAhz JxVs2d ChMk0b&quot;&gt;&lt;span class=&quot;ryNqvb&quot;&gt;Group Chat&lt;/span&gt;&lt;/span&gt;&lt;/span&gt;" style="whiteSpace=wrap;html=1;rounded=0;" vertex="1" parent="1">
          <mxGeometry x="-100" y="1820" width="120" height="60" as="geometry" />
        </mxCell>
        <mxCell id="aVvKcj2lCzMX1V1Kk-TO-34" value="0:1" style="edgeStyle=orthogonalEdgeStyle;rounded=0;orthogonalLoop=1;jettySize=auto;html=1;entryX=0.5;entryY=1;entryDx=0;entryDy=0;startArrow=classic;startFill=1;endArrow=none;endFill=0;exitX=0.5;exitY=0;exitDx=0;exitDy=0;" edge="1" parent="1" source="aVvKcj2lCzMX1V1Kk-TO-35" target="aVvKcj2lCzMX1V1Kk-TO-7">
          <mxGeometry relative="1" as="geometry">
            <Array as="points">
              <mxPoint x="-40" y="1390" />
              <mxPoint x="-40" y="1390" />
            </Array>
            <mxPoint x="20" y="1490" as="sourcePoint" />
            <mxPoint x="200" y="1370" as="targetPoint" />
          </mxGeometry>
        </mxCell>
        <mxCell id="aVvKcj2lCzMX1V1Kk-TO-35" value="is" style="rhombus;whiteSpace=wrap;html=1;rounded=0;" vertex="1" parent="1">
          <mxGeometry x="-80" y="1400" width="80" height="80" as="geometry" />
        </mxCell>
        <mxCell id="aVvKcj2lCzMX1V1Kk-TO-36" value="0:1" style="edgeStyle=orthogonalEdgeStyle;rounded=0;orthogonalLoop=1;jettySize=auto;html=1;entryX=0.501;entryY=-0.077;entryDx=0;entryDy=0;endArrow=none;endFill=0;startArrow=classic;startFill=1;entryPerimeter=0;" edge="1" parent="1" source="aVvKcj2lCzMX1V1Kk-TO-37" target="aVvKcj2lCzMX1V1Kk-TO-23">
          <mxGeometry relative="1" as="geometry">
            <Array as="points" />
          </mxGeometry>
        </mxCell>
        <mxCell id="aVvKcj2lCzMX1V1Kk-TO-37" value="is" style="rhombus;whiteSpace=wrap;html=1;rounded=0;" vertex="1" parent="1">
          <mxGeometry x="-80" y="1680" width="80" height="80" as="geometry" />
        </mxCell>
        <mxCell id="aVvKcj2lCzMX1V1Kk-TO-38" value="0:n" style="edgeStyle=orthogonalEdgeStyle;rounded=0;orthogonalLoop=1;jettySize=auto;html=1;entryX=0;entryY=0.5;entryDx=0;entryDy=0;" edge="1" parent="1" source="aVvKcj2lCzMX1V1Kk-TO-39" target="n2geMu9k5A_3AqIn-y-W-15">
          <mxGeometry relative="1" as="geometry">
            <mxPoint x="750" y="1690" as="targetPoint" />
          </mxGeometry>
        </mxCell>
        <mxCell id="aVvKcj2lCzMX1V1Kk-TO-39" value="has" style="rhombus;whiteSpace=wrap;html=1;rounded=0;" vertex="1" parent="1">
          <mxGeometry x="120" y="1810" width="80" height="80" as="geometry" />
        </mxCell>
        <mxCell id="aVvKcj2lCzMX1V1Kk-TO-42" value="1:1" style="edgeStyle=orthogonalEdgeStyle;rounded=0;orthogonalLoop=1;jettySize=auto;html=1;exitX=1;exitY=0.5;exitDx=0;exitDy=0;" edge="1" parent="1" target="aVvKcj2lCzMX1V1Kk-TO-44" source="aVvKcj2lCzMX1V1Kk-TO-20">
          <mxGeometry relative="1" as="geometry">
            <mxPoint x="60" y="1540" as="sourcePoint" />
          </mxGeometry>
        </mxCell>
        <mxCell id="aVvKcj2lCzMX1V1Kk-TO-43" value="0:n" style="edgeStyle=orthogonalEdgeStyle;rounded=0;orthogonalLoop=1;jettySize=auto;html=1;entryX=0;entryY=0.5;entryDx=0;entryDy=0;" edge="1" parent="1" source="aVvKcj2lCzMX1V1Kk-TO-44" target="aVvKcj2lCzMX1V1Kk-TO-12">
          <mxGeometry relative="1" as="geometry">
            <mxPoint x="245" y="1570" as="targetPoint" />
          </mxGeometry>
        </mxCell>
        <mxCell id="aVvKcj2lCzMX1V1Kk-TO-44" value="has" style="rhombus;whiteSpace=wrap;html=1;rounded=0;" vertex="1" parent="1">
          <mxGeometry x="120" y="1540" width="80" height="80" as="geometry" />
        </mxCell>
        <mxCell id="n2geMu9k5A_3AqIn-y-W-1" value="0:n" style="edgeStyle=orthogonalEdgeStyle;rounded=0;orthogonalLoop=1;jettySize=auto;html=1;exitX=1;exitY=0.5;exitDx=0;exitDy=0;" edge="1" parent="1" target="n2geMu9k5A_3AqIn-y-W-3" source="aVvKcj2lCzMX1V1Kk-TO-7">
          <mxGeometry relative="1" as="geometry">
            <mxPoint x="30" y="1300" as="sourcePoint" />
          </mxGeometry>
        </mxCell>
        <mxCell id="n2geMu9k5A_3AqIn-y-W-2" value="2:2" style="edgeStyle=orthogonalEdgeStyle;rounded=0;orthogonalLoop=1;jettySize=auto;html=1;entryX=0;entryY=0.5;entryDx=0;entryDy=0;" edge="1" parent="1" source="n2geMu9k5A_3AqIn-y-W-3" target="n2geMu9k5A_3AqIn-y-W-16">
          <mxGeometry relative="1" as="geometry">
            <mxPoint x="290" y="1300" as="targetPoint" />
          </mxGeometry>
        </mxCell>
        <mxCell id="n2geMu9k5A_3AqIn-y-W-3" value="has" style="rhombus;whiteSpace=wrap;html=1;rounded=0;" vertex="1" parent="1">
          <mxGeometry x="120" y="1260" width="80" height="80" as="geometry" />
        </mxCell>
        <mxCell id="n2geMu9k5A_3AqIn-y-W-8" value="0:n" style="edgeStyle=orthogonalEdgeStyle;rounded=0;orthogonalLoop=1;jettySize=auto;html=1;" edge="1" parent="1" source="n2geMu9k5A_3AqIn-y-W-5" target="n2geMu9k5A_3AqIn-y-W-7">
          <mxGeometry relative="1" as="geometry" />
        </mxCell>
        <mxCell id="n2geMu9k5A_3AqIn-y-W-5" value="has" style="rhombus;whiteSpace=wrap;html=1;rounded=0;" vertex="1" parent="1">
          <mxGeometry x="290" y="1410" width="80" height="80" as="geometry" />
        </mxCell>
        <mxCell id="n2geMu9k5A_3AqIn-y-W-12" value="0:n" style="edgeStyle=orthogonalEdgeStyle;rounded=0;orthogonalLoop=1;jettySize=auto;html=1;" edge="1" parent="1" source="n2geMu9k5A_3AqIn-y-W-7" target="n2geMu9k5A_3AqIn-y-W-11">
          <mxGeometry relative="1" as="geometry" />
        </mxCell>
        <mxCell id="n2geMu9k5A_3AqIn-y-W-7" value="&lt;span lang=&quot;en&quot; class=&quot;HwtZe&quot;&gt;&lt;span class=&quot;jCAhz JxVs2d ChMk0b&quot;&gt;&lt;span class=&quot;ryNqvb&quot;&gt;Message Receiver&lt;/span&gt;&lt;/span&gt;&lt;/span&gt;" style="whiteSpace=wrap;html=1;rounded=0;" vertex="1" parent="1">
          <mxGeometry x="440" y="1420" width="120" height="60" as="geometry" />
        </mxCell>
        <mxCell id="n2geMu9k5A_3AqIn-y-W-13" value="1:1" style="edgeStyle=orthogonalEdgeStyle;rounded=0;orthogonalLoop=1;jettySize=auto;html=1;entryX=0.5;entryY=0;entryDx=0;entryDy=0;" edge="1" parent="1" source="n2geMu9k5A_3AqIn-y-W-11" target="aVvKcj2lCzMX1V1Kk-TO-15">
          <mxGeometry relative="1" as="geometry" />
        </mxCell>
        <mxCell id="n2geMu9k5A_3AqIn-y-W-11" value="&lt;span lang=&quot;en&quot; class=&quot;HwtZe&quot;&gt;&lt;span class=&quot;jCAhz JxVs2d&quot;&gt;&lt;span class=&quot;ryNqvb&quot;&gt;&lt;/span&gt;&lt;/span&gt;&lt;span class=&quot;jCAhz JxVs2d ChMk0b&quot;&gt;&lt;span class=&quot;ryNqvb&quot;&gt;received by&lt;/span&gt;&lt;/span&gt;&lt;/span&gt;" style="rhombus;whiteSpace=wrap;html=1;rounded=0;" vertex="1" parent="1">
          <mxGeometry x="640" y="1410" width="80" height="80" as="geometry" />
        </mxCell>
        <mxCell id="n2geMu9k5A_3AqIn-y-W-15" value="Conversant" style="whiteSpace=wrap;html=1;rounded=0;" vertex="1" parent="1">
          <mxGeometry x="270" y="1820" width="120" height="60" as="geometry" />
        </mxCell>
        <mxCell id="n2geMu9k5A_3AqIn-y-W-16" value="Conversant" style="whiteSpace=wrap;html=1;rounded=0;" vertex="1" parent="1">
          <mxGeometry x="270" y="1270" width="120" height="60" as="geometry" />
        </mxCell>
        <mxCell id="n2geMu9k5A_3AqIn-y-W-17" value="Name" style="ellipse;whiteSpace=wrap;html=1;align=center;" vertex="1" parent="1">
          <mxGeometry x="-260" y="1790" width="100" height="40" as="geometry" />
        </mxCell>
        <mxCell id="n2geMu9k5A_3AqIn-y-W-18" value="Description" style="ellipse;whiteSpace=wrap;html=1;align=center;" vertex="1" parent="1">
          <mxGeometry x="-260" y="1850" width="100" height="40" as="geometry" />
        </mxCell>
        <mxCell id="n2geMu9k5A_3AqIn-y-W-19" value="Photo" style="ellipse;whiteSpace=wrap;html=1;align=center;" vertex="1" parent="1">
          <mxGeometry x="-260" y="1910" width="100" height="40" as="geometry" />
        </mxCell>
        <mxCell id="n2geMu9k5A_3AqIn-y-W-21" value="" style="endArrow=none;html=1;rounded=0;exitX=1;exitY=0.5;exitDx=0;exitDy=0;entryX=0;entryY=0.5;entryDx=0;entryDy=0;" edge="1" parent="1" source="n2geMu9k5A_3AqIn-y-W-17" target="aVvKcj2lCzMX1V1Kk-TO-23">
          <mxGeometry width="50" height="50" relative="1" as="geometry">
            <mxPoint x="-130" y="1990" as="sourcePoint" />
            <mxPoint x="-80" y="1940" as="targetPoint" />
          </mxGeometry>
        </mxCell>
        <mxCell id="n2geMu9k5A_3AqIn-y-W-22" value="" style="endArrow=none;html=1;rounded=0;exitX=1;exitY=0.5;exitDx=0;exitDy=0;entryX=0;entryY=0.5;entryDx=0;entryDy=0;" edge="1" parent="1" source="n2geMu9k5A_3AqIn-y-W-18" target="aVvKcj2lCzMX1V1Kk-TO-23">
          <mxGeometry width="50" height="50" relative="1" as="geometry">
            <mxPoint x="-150" y="1820" as="sourcePoint" />
            <mxPoint x="-90" y="1860" as="targetPoint" />
          </mxGeometry>
        </mxCell>
        <mxCell id="n2geMu9k5A_3AqIn-y-W-23" value="" style="endArrow=none;html=1;rounded=0;exitX=1;exitY=0.5;exitDx=0;exitDy=0;entryX=0;entryY=0.5;entryDx=0;entryDy=0;" edge="1" parent="1" source="n2geMu9k5A_3AqIn-y-W-19" target="aVvKcj2lCzMX1V1Kk-TO-23">
          <mxGeometry width="50" height="50" relative="1" as="geometry">
            <mxPoint x="-140" y="1830" as="sourcePoint" />
            <mxPoint x="-80" y="1870" as="targetPoint" />
          </mxGeometry>
        </mxCell>
      </root>
    </mxGraphModel>
  </diagram>
  <diagram id="B68AmivxabTwbHIS75sP" name="Class">
    <mxGraphModel dx="1195" dy="607" grid="1" gridSize="10" guides="1" tooltips="1" connect="1" arrows="1" fold="1" page="1" pageScale="1" pageWidth="850" pageHeight="1100" math="0" shadow="0">
      <root>
        <mxCell id="0" />
        <mxCell id="1" parent="0" />
        <mxCell id="ddUf5t45kCHf7Mhf8iWr-1" value="chat" style="swimlane;fontStyle=0;childLayout=stackLayout;horizontal=1;startSize=26;fillColor=none;horizontalStack=0;resizeParent=1;resizeParentMax=0;resizeLast=0;collapsible=1;marginBottom=0;whiteSpace=wrap;html=1;" vertex="1" parent="1">
          <mxGeometry x="60" y="230" width="170" height="156" as="geometry" />
        </mxCell>
        <mxCell id="ddUf5t45kCHf7Mhf8iWr-2" value="+ id: char(40)" style="text;strokeColor=none;fillColor=none;align=left;verticalAlign=top;spacingLeft=4;spacingRight=4;overflow=hidden;rotatable=0;points=[[0,0.5],[1,0.5]];portConstraint=eastwest;whiteSpace=wrap;html=1;" vertex="1" parent="ddUf5t45kCHf7Mhf8iWr-1">
          <mxGeometry y="26" width="170" height="26" as="geometry" />
        </mxCell>
        <mxCell id="E_Vpr5KFlPAIyziiexhU-1" value="+ type: enum(private, &lt;span lang=&quot;en&quot; class=&quot;HwtZe&quot;&gt;&lt;span class=&quot;jCAhz JxVs2d ChMk0b&quot;&gt;&lt;span class=&quot;ryNqvb&quot;&gt;group&lt;/span&gt;&lt;/span&gt;&lt;/span&gt;)" style="text;strokeColor=none;fillColor=none;align=left;verticalAlign=top;spacingLeft=4;spacingRight=4;overflow=hidden;rotatable=0;points=[[0,0.5],[1,0.5]];portConstraint=eastwest;whiteSpace=wrap;html=1;" vertex="1" parent="ddUf5t45kCHf7Mhf8iWr-1">
          <mxGeometry y="52" width="170" height="26" as="geometry" />
        </mxCell>
        <mxCell id="kL1UpT08ddvCLuD5EB7u-2" value="+ tenant_id: char(40)" style="text;strokeColor=none;fillColor=none;align=left;verticalAlign=top;spacingLeft=4;spacingRight=4;overflow=hidden;rotatable=0;points=[[0,0.5],[1,0.5]];portConstraint=eastwest;whiteSpace=wrap;html=1;" vertex="1" parent="ddUf5t45kCHf7Mhf8iWr-1">
          <mxGeometry y="78" width="170" height="26" as="geometry" />
        </mxCell>
        <mxCell id="8Rxsi6XACVS4zuab45jA-3" value="+ created_at: datetime" style="text;strokeColor=none;fillColor=none;align=left;verticalAlign=top;spacingLeft=4;spacingRight=4;overflow=hidden;rotatable=0;points=[[0,0.5],[1,0.5]];portConstraint=eastwest;whiteSpace=wrap;html=1;" vertex="1" parent="ddUf5t45kCHf7Mhf8iWr-1">
          <mxGeometry y="104" width="170" height="26" as="geometry" />
        </mxCell>
        <mxCell id="8Rxsi6XACVS4zuab45jA-4" value="+ updated_at: datetime" style="text;strokeColor=none;fillColor=none;align=left;verticalAlign=top;spacingLeft=4;spacingRight=4;overflow=hidden;rotatable=0;points=[[0,0.5],[1,0.5]];portConstraint=eastwest;whiteSpace=wrap;html=1;" vertex="1" parent="ddUf5t45kCHf7Mhf8iWr-1">
          <mxGeometry y="130" width="170" height="26" as="geometry" />
        </mxCell>
        <mxCell id="MvS0dBUTkGC6PPS_ZNmc-1" value="private_chat" style="swimlane;fontStyle=0;childLayout=stackLayout;horizontal=1;startSize=26;fillColor=none;horizontalStack=0;resizeParent=1;resizeParentMax=0;resizeLast=0;collapsible=1;marginBottom=0;whiteSpace=wrap;html=1;" vertex="1" parent="1">
          <mxGeometry x="265" y="230" width="145" height="208" as="geometry" />
        </mxCell>
        <mxCell id="jjjrXhqHT2cd_62YxND1-2" value="+ id: char(40)" style="text;strokeColor=none;fillColor=none;align=left;verticalAlign=top;spacingLeft=4;spacingRight=4;overflow=hidden;rotatable=0;points=[[0,0.5],[1,0.5]];portConstraint=eastwest;whiteSpace=wrap;html=1;" vertex="1" parent="MvS0dBUTkGC6PPS_ZNmc-1">
          <mxGeometry y="26" width="145" height="26" as="geometry" />
        </mxCell>
        <mxCell id="DC8ShNtXnE5x6nCC50yK-1" value="+ chat_id: char(40)" style="text;strokeColor=none;fillColor=none;align=left;verticalAlign=top;spacingLeft=4;spacingRight=4;overflow=hidden;rotatable=0;points=[[0,0.5],[1,0.5]];portConstraint=eastwest;whiteSpace=wrap;html=1;" vertex="1" parent="MvS0dBUTkGC6PPS_ZNmc-1">
          <mxGeometry y="52" width="145" height="26" as="geometry" />
        </mxCell>
        <mxCell id="MvS0dBUTkGC6PPS_ZNmc-4" value="+ sender_id: char(40)" style="text;strokeColor=none;fillColor=none;align=left;verticalAlign=top;spacingLeft=4;spacingRight=4;overflow=hidden;rotatable=0;points=[[0,0.5],[1,0.5]];portConstraint=eastwest;whiteSpace=wrap;html=1;" vertex="1" parent="MvS0dBUTkGC6PPS_ZNmc-1">
          <mxGeometry y="78" width="145" height="26" as="geometry" />
        </mxCell>
        <mxCell id="si000Nnp0eQi5e-dcaf3-1" value="+ receiver_id: char(40)" style="text;strokeColor=none;fillColor=none;align=left;verticalAlign=top;spacingLeft=4;spacingRight=4;overflow=hidden;rotatable=0;points=[[0,0.5],[1,0.5]];portConstraint=eastwest;whiteSpace=wrap;html=1;" vertex="1" parent="MvS0dBUTkGC6PPS_ZNmc-1">
          <mxGeometry y="104" width="145" height="26" as="geometry" />
        </mxCell>
        <mxCell id="kL1UpT08ddvCLuD5EB7u-3" value="+ tenant_id: char(40)" style="text;strokeColor=none;fillColor=none;align=left;verticalAlign=top;spacingLeft=4;spacingRight=4;overflow=hidden;rotatable=0;points=[[0,0.5],[1,0.5]];portConstraint=eastwest;whiteSpace=wrap;html=1;" vertex="1" parent="MvS0dBUTkGC6PPS_ZNmc-1">
          <mxGeometry y="130" width="145" height="26" as="geometry" />
        </mxCell>
        <mxCell id="8Rxsi6XACVS4zuab45jA-6" value="+ updated_at: datetime" style="text;strokeColor=none;fillColor=none;align=left;verticalAlign=top;spacingLeft=4;spacingRight=4;overflow=hidden;rotatable=0;points=[[0,0.5],[1,0.5]];portConstraint=eastwest;whiteSpace=wrap;html=1;" vertex="1" parent="MvS0dBUTkGC6PPS_ZNmc-1">
          <mxGeometry y="156" width="145" height="26" as="geometry" />
        </mxCell>
        <mxCell id="8Rxsi6XACVS4zuab45jA-5" value="+ created_at: datetime" style="text;strokeColor=none;fillColor=none;align=left;verticalAlign=top;spacingLeft=4;spacingRight=4;overflow=hidden;rotatable=0;points=[[0,0.5],[1,0.5]];portConstraint=eastwest;whiteSpace=wrap;html=1;" vertex="1" parent="MvS0dBUTkGC6PPS_ZNmc-1">
          <mxGeometry y="182" width="145" height="26" as="geometry" />
        </mxCell>
        <mxCell id="MvS0dBUTkGC6PPS_ZNmc-5" value="&lt;span lang=&quot;en&quot; class=&quot;HwtZe&quot;&gt;&lt;span class=&quot;jCAhz JxVs2d ChMk0b&quot;&gt;&lt;span class=&quot;ryNqvb&quot;&gt;group_chat&lt;/span&gt;&lt;/span&gt;&lt;/span&gt;" style="swimlane;fontStyle=0;childLayout=stackLayout;horizontal=1;startSize=26;fillColor=none;horizontalStack=0;resizeParent=1;resizeParentMax=0;resizeLast=0;collapsible=1;marginBottom=0;whiteSpace=wrap;html=1;" vertex="1" parent="1">
          <mxGeometry x="440" y="230" width="170" height="260" as="geometry" />
        </mxCell>
        <mxCell id="jjjrXhqHT2cd_62YxND1-3" value="+ id: char(40)" style="text;strokeColor=none;fillColor=none;align=left;verticalAlign=top;spacingLeft=4;spacingRight=4;overflow=hidden;rotatable=0;points=[[0,0.5],[1,0.5]];portConstraint=eastwest;whiteSpace=wrap;html=1;" vertex="1" parent="MvS0dBUTkGC6PPS_ZNmc-5">
          <mxGeometry y="26" width="170" height="26" as="geometry" />
        </mxCell>
        <mxCell id="DC8ShNtXnE5x6nCC50yK-2" value="+ chat_id: char(40)" style="text;strokeColor=none;fillColor=none;align=left;verticalAlign=top;spacingLeft=4;spacingRight=4;overflow=hidden;rotatable=0;points=[[0,0.5],[1,0.5]];portConstraint=eastwest;whiteSpace=wrap;html=1;" vertex="1" parent="MvS0dBUTkGC6PPS_ZNmc-5">
          <mxGeometry y="52" width="170" height="26" as="geometry" />
        </mxCell>
        <mxCell id="MvS0dBUTkGC6PPS_ZNmc-2" value="+ name: varchar(150)" style="text;strokeColor=none;fillColor=none;align=left;verticalAlign=top;spacingLeft=4;spacingRight=4;overflow=hidden;rotatable=0;points=[[0,0.5],[1,0.5]];portConstraint=eastwest;whiteSpace=wrap;html=1;" vertex="1" parent="MvS0dBUTkGC6PPS_ZNmc-5">
          <mxGeometry y="78" width="170" height="26" as="geometry" />
        </mxCell>
        <mxCell id="MvS0dBUTkGC6PPS_ZNmc-3" value="+ description: varchar(255)" style="text;strokeColor=none;fillColor=none;align=left;verticalAlign=top;spacingLeft=4;spacingRight=4;overflow=hidden;rotatable=0;points=[[0,0.5],[1,0.5]];portConstraint=eastwest;whiteSpace=wrap;html=1;" vertex="1" parent="MvS0dBUTkGC6PPS_ZNmc-5">
          <mxGeometry y="104" width="170" height="26" as="geometry" />
        </mxCell>
        <mxCell id="MvS0dBUTkGC6PPS_ZNmc-6" value="+ img_src: varchar(255)" style="text;strokeColor=none;fillColor=none;align=left;verticalAlign=top;spacingLeft=4;spacingRight=4;overflow=hidden;rotatable=0;points=[[0,0.5],[1,0.5]];portConstraint=eastwest;whiteSpace=wrap;html=1;" vertex="1" parent="MvS0dBUTkGC6PPS_ZNmc-5">
          <mxGeometry y="130" width="170" height="26" as="geometry" />
        </mxCell>
        <mxCell id="7OBUFX-icTmgxl7Kngdh-1" value="+ is_deleted: boolean" style="text;strokeColor=none;fillColor=none;align=left;verticalAlign=top;spacingLeft=4;spacingRight=4;overflow=hidden;rotatable=0;points=[[0,0.5],[1,0.5]];portConstraint=eastwest;whiteSpace=wrap;html=1;" vertex="1" parent="MvS0dBUTkGC6PPS_ZNmc-5">
          <mxGeometry y="156" width="170" height="26" as="geometry" />
        </mxCell>
        <mxCell id="kL1UpT08ddvCLuD5EB7u-4" value="+ tenant_id: char(40)" style="text;strokeColor=none;fillColor=none;align=left;verticalAlign=top;spacingLeft=4;spacingRight=4;overflow=hidden;rotatable=0;points=[[0,0.5],[1,0.5]];portConstraint=eastwest;whiteSpace=wrap;html=1;" vertex="1" parent="MvS0dBUTkGC6PPS_ZNmc-5">
          <mxGeometry y="182" width="170" height="26" as="geometry" />
        </mxCell>
        <mxCell id="8Rxsi6XACVS4zuab45jA-7" value="+ created_at: datetime" style="text;strokeColor=none;fillColor=none;align=left;verticalAlign=top;spacingLeft=4;spacingRight=4;overflow=hidden;rotatable=0;points=[[0,0.5],[1,0.5]];portConstraint=eastwest;whiteSpace=wrap;html=1;" vertex="1" parent="MvS0dBUTkGC6PPS_ZNmc-5">
          <mxGeometry y="208" width="170" height="26" as="geometry" />
        </mxCell>
        <mxCell id="8Rxsi6XACVS4zuab45jA-8" value="+ updated_at: datetime" style="text;strokeColor=none;fillColor=none;align=left;verticalAlign=top;spacingLeft=4;spacingRight=4;overflow=hidden;rotatable=0;points=[[0,0.5],[1,0.5]];portConstraint=eastwest;whiteSpace=wrap;html=1;" vertex="1" parent="MvS0dBUTkGC6PPS_ZNmc-5">
          <mxGeometry y="234" width="170" height="26" as="geometry" />
        </mxCell>
        <mxCell id="7S5HZZVB5Bzde0kuPNgy-1" value="&lt;span lang=&quot;en&quot; class=&quot;HwtZe&quot;&gt;&lt;span class=&quot;jCAhz JxVs2d ChMk0b&quot;&gt;&lt;span class=&quot;ryNqvb&quot;&gt;message&lt;/span&gt;&lt;/span&gt;&lt;/span&gt;" style="swimlane;fontStyle=0;childLayout=stackLayout;horizontal=1;startSize=26;fillColor=none;horizontalStack=0;resizeParent=1;resizeParentMax=0;resizeLast=0;collapsible=1;marginBottom=0;whiteSpace=wrap;html=1;" vertex="1" parent="1">
          <mxGeometry x="190" y="530" width="160" height="234" as="geometry" />
        </mxCell>
        <mxCell id="jjjrXhqHT2cd_62YxND1-4" value="+ id: char(40)" style="text;strokeColor=none;fillColor=none;align=left;verticalAlign=top;spacingLeft=4;spacingRight=4;overflow=hidden;rotatable=0;points=[[0,0.5],[1,0.5]];portConstraint=eastwest;whiteSpace=wrap;html=1;" vertex="1" parent="7S5HZZVB5Bzde0kuPNgy-1">
          <mxGeometry y="26" width="160" height="26" as="geometry" />
        </mxCell>
        <mxCell id="aJvRwnTXVSfEE89a6o_I-1" value="+ chat_id: char(40)" style="text;strokeColor=none;fillColor=none;align=left;verticalAlign=top;spacingLeft=4;spacingRight=4;overflow=hidden;rotatable=0;points=[[0,0.5],[1,0.5]];portConstraint=eastwest;whiteSpace=wrap;html=1;" vertex="1" parent="7S5HZZVB5Bzde0kuPNgy-1">
          <mxGeometry y="52" width="160" height="26" as="geometry" />
        </mxCell>
        <mxCell id="7S5HZZVB5Bzde0kuPNgy-2" value="+&amp;nbsp;encrypted_message: text" style="text;strokeColor=none;fillColor=none;align=left;verticalAlign=top;spacingLeft=4;spacingRight=4;overflow=hidden;rotatable=0;points=[[0,0.5],[1,0.5]];portConstraint=eastwest;whiteSpace=wrap;html=1;" vertex="1" parent="7S5HZZVB5Bzde0kuPNgy-1">
          <mxGeometry y="78" width="160" height="26" as="geometry" />
        </mxCell>
        <mxCell id="7S5HZZVB5Bzde0kuPNgy-3" value="+&amp;nbsp;sender_id: char(40)" style="text;strokeColor=none;fillColor=none;align=left;verticalAlign=top;spacingLeft=4;spacingRight=4;overflow=hidden;rotatable=0;points=[[0,0.5],[1,0.5]];portConstraint=eastwest;whiteSpace=wrap;html=1;" vertex="1" parent="7S5HZZVB5Bzde0kuPNgy-1">
          <mxGeometry y="104" width="160" height="26" as="geometry" />
        </mxCell>
        <mxCell id="7S5HZZVB5Bzde0kuPNgy-4" value="+ is_deleted: boolean" style="text;strokeColor=none;fillColor=none;align=left;verticalAlign=top;spacingLeft=4;spacingRight=4;overflow=hidden;rotatable=0;points=[[0,0.5],[1,0.5]];portConstraint=eastwest;whiteSpace=wrap;html=1;" vertex="1" parent="7S5HZZVB5Bzde0kuPNgy-1">
          <mxGeometry y="130" width="160" height="26" as="geometry" />
        </mxCell>
        <mxCell id="kL1UpT08ddvCLuD5EB7u-7" value="+ tenant_id: char(40)" style="text;strokeColor=none;fillColor=none;align=left;verticalAlign=top;spacingLeft=4;spacingRight=4;overflow=hidden;rotatable=0;points=[[0,0.5],[1,0.5]];portConstraint=eastwest;whiteSpace=wrap;html=1;" vertex="1" parent="7S5HZZVB5Bzde0kuPNgy-1">
          <mxGeometry y="156" width="160" height="26" as="geometry" />
        </mxCell>
        <mxCell id="8Rxsi6XACVS4zuab45jA-1" value="+ created_at: datetime" style="text;strokeColor=none;fillColor=none;align=left;verticalAlign=top;spacingLeft=4;spacingRight=4;overflow=hidden;rotatable=0;points=[[0,0.5],[1,0.5]];portConstraint=eastwest;whiteSpace=wrap;html=1;" vertex="1" parent="7S5HZZVB5Bzde0kuPNgy-1">
          <mxGeometry y="182" width="160" height="26" as="geometry" />
        </mxCell>
        <mxCell id="8Rxsi6XACVS4zuab45jA-2" value="+ updated_at: datetime" style="text;strokeColor=none;fillColor=none;align=left;verticalAlign=top;spacingLeft=4;spacingRight=4;overflow=hidden;rotatable=0;points=[[0,0.5],[1,0.5]];portConstraint=eastwest;whiteSpace=wrap;html=1;" vertex="1" parent="7S5HZZVB5Bzde0kuPNgy-1">
          <mxGeometry y="208" width="160" height="26" as="geometry" />
        </mxCell>
        <mxCell id="Sju4h6w74ZdkLcRAbUUa-1" value="&lt;span lang=&quot;en&quot; class=&quot;HwtZe&quot;&gt;&lt;span class=&quot;jCAhz JxVs2d ChMk0b&quot;&gt;&lt;span class=&quot;ryNqvb&quot;&gt;message_receiver&lt;/span&gt;&lt;/span&gt;&lt;/span&gt;" style="swimlane;fontStyle=0;childLayout=stackLayout;horizontal=1;startSize=26;fillColor=none;horizontalStack=0;resizeParent=1;resizeParentMax=0;resizeLast=0;collapsible=1;marginBottom=0;whiteSpace=wrap;html=1;" vertex="1" parent="1">
          <mxGeometry x="430" y="530" width="140" height="208" as="geometry" />
        </mxCell>
        <mxCell id="jjjrXhqHT2cd_62YxND1-5" value="+ id: char(40)" style="text;strokeColor=none;fillColor=none;align=left;verticalAlign=top;spacingLeft=4;spacingRight=4;overflow=hidden;rotatable=0;points=[[0,0.5],[1,0.5]];portConstraint=eastwest;whiteSpace=wrap;html=1;" vertex="1" parent="Sju4h6w74ZdkLcRAbUUa-1">
          <mxGeometry y="26" width="140" height="26" as="geometry" />
        </mxCell>
        <mxCell id="nLJssxS1bQQeAZraIsyt-1" value="+ message_id: char(40)" style="text;strokeColor=none;fillColor=none;align=left;verticalAlign=top;spacingLeft=4;spacingRight=4;overflow=hidden;rotatable=0;points=[[0,0.5],[1,0.5]];portConstraint=eastwest;whiteSpace=wrap;html=1;" vertex="1" parent="Sju4h6w74ZdkLcRAbUUa-1">
          <mxGeometry y="52" width="140" height="26" as="geometry" />
        </mxCell>
        <mxCell id="Sju4h6w74ZdkLcRAbUUa-2" value="+&amp;nbsp;receiver_id: char(40)" style="text;strokeColor=none;fillColor=none;align=left;verticalAlign=top;spacingLeft=4;spacingRight=4;overflow=hidden;rotatable=0;points=[[0,0.5],[1,0.5]];portConstraint=eastwest;whiteSpace=wrap;html=1;" vertex="1" parent="Sju4h6w74ZdkLcRAbUUa-1">
          <mxGeometry y="78" width="140" height="26" as="geometry" />
        </mxCell>
        <mxCell id="Sju4h6w74ZdkLcRAbUUa-3" value="+ is_deleted: boolean" style="text;strokeColor=none;fillColor=none;align=left;verticalAlign=top;spacingLeft=4;spacingRight=4;overflow=hidden;rotatable=0;points=[[0,0.5],[1,0.5]];portConstraint=eastwest;whiteSpace=wrap;html=1;" vertex="1" parent="Sju4h6w74ZdkLcRAbUUa-1">
          <mxGeometry y="104" width="140" height="26" as="geometry" />
        </mxCell>
        <mxCell id="kL1UpT08ddvCLuD5EB7u-8" value="+ tenant_id: char(40)" style="text;strokeColor=none;fillColor=none;align=left;verticalAlign=top;spacingLeft=4;spacingRight=4;overflow=hidden;rotatable=0;points=[[0,0.5],[1,0.5]];portConstraint=eastwest;whiteSpace=wrap;html=1;" vertex="1" parent="Sju4h6w74ZdkLcRAbUUa-1">
          <mxGeometry y="130" width="140" height="26" as="geometry" />
        </mxCell>
        <mxCell id="8Rxsi6XACVS4zuab45jA-9" value="+ created_at: datetime" style="text;strokeColor=none;fillColor=none;align=left;verticalAlign=top;spacingLeft=4;spacingRight=4;overflow=hidden;rotatable=0;points=[[0,0.5],[1,0.5]];portConstraint=eastwest;whiteSpace=wrap;html=1;" vertex="1" parent="Sju4h6w74ZdkLcRAbUUa-1">
          <mxGeometry y="156" width="140" height="26" as="geometry" />
        </mxCell>
        <mxCell id="8Rxsi6XACVS4zuab45jA-10" value="+ updated_at: datetime" style="text;strokeColor=none;fillColor=none;align=left;verticalAlign=top;spacingLeft=4;spacingRight=4;overflow=hidden;rotatable=0;points=[[0,0.5],[1,0.5]];portConstraint=eastwest;whiteSpace=wrap;html=1;" vertex="1" parent="Sju4h6w74ZdkLcRAbUUa-1">
          <mxGeometry y="182" width="140" height="26" as="geometry" />
        </mxCell>
        <mxCell id="7OBUFX-icTmgxl7Kngdh-2" value="conversant" style="swimlane;fontStyle=0;childLayout=stackLayout;horizontal=1;startSize=26;fillColor=none;horizontalStack=0;resizeParent=1;resizeParentMax=0;resizeLast=0;collapsible=1;marginBottom=0;whiteSpace=wrap;html=1;" vertex="1" parent="1">
          <mxGeometry x="850" y="230" width="140" height="182" as="geometry" />
        </mxCell>
        <mxCell id="xH0x-DO4ZTvybiIEER_L-1" value="+ id: char(40)" style="text;strokeColor=none;fillColor=none;align=left;verticalAlign=top;spacingLeft=4;spacingRight=4;overflow=hidden;rotatable=0;points=[[0,0.5],[1,0.5]];portConstraint=eastwest;whiteSpace=wrap;html=1;" vertex="1" parent="7OBUFX-icTmgxl7Kngdh-2">
          <mxGeometry y="26" width="140" height="26" as="geometry" />
        </mxCell>
        <mxCell id="7OBUFX-icTmgxl7Kngdh-4" value="+ name: varchar(150)" style="text;strokeColor=none;fillColor=none;align=left;verticalAlign=top;spacingLeft=4;spacingRight=4;overflow=hidden;rotatable=0;points=[[0,0.5],[1,0.5]];portConstraint=eastwest;whiteSpace=wrap;html=1;" vertex="1" parent="7OBUFX-icTmgxl7Kngdh-2">
          <mxGeometry y="52" width="140" height="26" as="geometry" />
        </mxCell>
        <mxCell id="7OBUFX-icTmgxl7Kngdh-5" value="+ img_src: varchar(255)" style="text;strokeColor=none;fillColor=none;align=left;verticalAlign=top;spacingLeft=4;spacingRight=4;overflow=hidden;rotatable=0;points=[[0,0.5],[1,0.5]];portConstraint=eastwest;whiteSpace=wrap;html=1;" vertex="1" parent="7OBUFX-icTmgxl7Kngdh-2">
          <mxGeometry y="78" width="140" height="26" as="geometry" />
        </mxCell>
        <mxCell id="kL1UpT08ddvCLuD5EB7u-6" value="+ tenant_id: char(40)" style="text;strokeColor=none;fillColor=none;align=left;verticalAlign=top;spacingLeft=4;spacingRight=4;overflow=hidden;rotatable=0;points=[[0,0.5],[1,0.5]];portConstraint=eastwest;whiteSpace=wrap;html=1;" vertex="1" parent="7OBUFX-icTmgxl7Kngdh-2">
          <mxGeometry y="104" width="140" height="26" as="geometry" />
        </mxCell>
        <mxCell id="xH0x-DO4ZTvybiIEER_L-2" value="+ created_at: datetime" style="text;strokeColor=none;fillColor=none;align=left;verticalAlign=top;spacingLeft=4;spacingRight=4;overflow=hidden;rotatable=0;points=[[0,0.5],[1,0.5]];portConstraint=eastwest;whiteSpace=wrap;html=1;" vertex="1" parent="7OBUFX-icTmgxl7Kngdh-2">
          <mxGeometry y="130" width="140" height="26" as="geometry" />
        </mxCell>
        <mxCell id="xH0x-DO4ZTvybiIEER_L-3" value="+ updated_at: datetime" style="text;strokeColor=none;fillColor=none;align=left;verticalAlign=top;spacingLeft=4;spacingRight=4;overflow=hidden;rotatable=0;points=[[0,0.5],[1,0.5]];portConstraint=eastwest;whiteSpace=wrap;html=1;" vertex="1" parent="7OBUFX-icTmgxl7Kngdh-2">
          <mxGeometry y="156" width="140" height="26" as="geometry" />
        </mxCell>
        <mxCell id="eWT7-Sc0pih5u7kCpJ7b-1" value="group_chat_member" style="swimlane;fontStyle=0;childLayout=stackLayout;horizontal=1;startSize=26;fillColor=none;horizontalStack=0;resizeParent=1;resizeParentMax=0;resizeLast=0;collapsible=1;marginBottom=0;whiteSpace=wrap;html=1;" vertex="1" parent="1">
          <mxGeometry x="640" y="230" width="160" height="234" as="geometry" />
        </mxCell>
        <mxCell id="eWT7-Sc0pih5u7kCpJ7b-2" value="+ id: char(40)" style="text;strokeColor=none;fillColor=none;align=left;verticalAlign=top;spacingLeft=4;spacingRight=4;overflow=hidden;rotatable=0;points=[[0,0.5],[1,0.5]];portConstraint=eastwest;whiteSpace=wrap;html=1;" vertex="1" parent="eWT7-Sc0pih5u7kCpJ7b-1">
          <mxGeometry y="26" width="160" height="26" as="geometry" />
        </mxCell>
        <mxCell id="eWT7-Sc0pih5u7kCpJ7b-8" value="+ member_id: char(40)" style="text;strokeColor=none;fillColor=none;align=left;verticalAlign=top;spacingLeft=4;spacingRight=4;overflow=hidden;rotatable=0;points=[[0,0.5],[1,0.5]];portConstraint=eastwest;whiteSpace=wrap;html=1;" vertex="1" parent="eWT7-Sc0pih5u7kCpJ7b-1">
          <mxGeometry y="52" width="160" height="26" as="geometry" />
        </mxCell>
        <mxCell id="eWT7-Sc0pih5u7kCpJ7b-10" value="+&amp;nbsp;&lt;span lang=&quot;en&quot; class=&quot;HwtZe&quot;&gt;&lt;span class=&quot;jCAhz JxVs2d ChMk0b&quot;&gt;&lt;span class=&quot;ryNqvb&quot;&gt;group_chat&lt;/span&gt;&lt;/span&gt;&lt;/span&gt;_id: char(40)" style="text;strokeColor=none;fillColor=none;align=left;verticalAlign=top;spacingLeft=4;spacingRight=4;overflow=hidden;rotatable=0;points=[[0,0.5],[1,0.5]];portConstraint=eastwest;whiteSpace=wrap;html=1;" vertex="1" parent="eWT7-Sc0pih5u7kCpJ7b-1">
          <mxGeometry y="78" width="160" height="26" as="geometry" />
        </mxCell>
        <mxCell id="eWT7-Sc0pih5u7kCpJ7b-9" value="+ is_removed: boolean" style="text;strokeColor=none;fillColor=none;align=left;verticalAlign=top;spacingLeft=4;spacingRight=4;overflow=hidden;rotatable=0;points=[[0,0.5],[1,0.5]];portConstraint=eastwest;whiteSpace=wrap;html=1;" vertex="1" parent="eWT7-Sc0pih5u7kCpJ7b-1">
          <mxGeometry y="104" width="160" height="26" as="geometry" />
        </mxCell>
        <mxCell id="eWT7-Sc0pih5u7kCpJ7b-13" value="+ is_deleted: boolean" style="text;strokeColor=none;fillColor=none;align=left;verticalAlign=top;spacingLeft=4;spacingRight=4;overflow=hidden;rotatable=0;points=[[0,0.5],[1,0.5]];portConstraint=eastwest;whiteSpace=wrap;html=1;" vertex="1" parent="eWT7-Sc0pih5u7kCpJ7b-1">
          <mxGeometry y="130" width="160" height="26" as="geometry" />
        </mxCell>
        <mxCell id="kL1UpT08ddvCLuD5EB7u-5" value="+ tenant_id: char(40)" style="text;strokeColor=none;fillColor=none;align=left;verticalAlign=top;spacingLeft=4;spacingRight=4;overflow=hidden;rotatable=0;points=[[0,0.5],[1,0.5]];portConstraint=eastwest;whiteSpace=wrap;html=1;" vertex="1" parent="eWT7-Sc0pih5u7kCpJ7b-1">
          <mxGeometry y="156" width="160" height="26" as="geometry" />
        </mxCell>
        <mxCell id="eWT7-Sc0pih5u7kCpJ7b-5" value="+ created_at: datetime" style="text;strokeColor=none;fillColor=none;align=left;verticalAlign=top;spacingLeft=4;spacingRight=4;overflow=hidden;rotatable=0;points=[[0,0.5],[1,0.5]];portConstraint=eastwest;whiteSpace=wrap;html=1;" vertex="1" parent="eWT7-Sc0pih5u7kCpJ7b-1">
          <mxGeometry y="182" width="160" height="26" as="geometry" />
        </mxCell>
        <mxCell id="eWT7-Sc0pih5u7kCpJ7b-6" value="+ updated_at: datetime" style="text;strokeColor=none;fillColor=none;align=left;verticalAlign=top;spacingLeft=4;spacingRight=4;overflow=hidden;rotatable=0;points=[[0,0.5],[1,0.5]];portConstraint=eastwest;whiteSpace=wrap;html=1;" vertex="1" parent="eWT7-Sc0pih5u7kCpJ7b-1">
          <mxGeometry y="208" width="160" height="26" as="geometry" />
        </mxCell>
        <mxCell id="kL1UpT08ddvCLuD5EB7u-1" value="Comparar com os requisitos e os outros artefatos pra ter certeza, se a estrutura tiver boa dar proseguimento" style="text;html=1;align=center;verticalAlign=middle;resizable=0;points=[];autosize=1;strokeColor=none;fillColor=none;" vertex="1" parent="1">
          <mxGeometry x="620" y="520" width="600" height="30" as="geometry" />
        </mxCell>
      </root>
    </mxGraphModel>
  </diagram>
  <diagram id="avbbhVfBpecSymPYP6D0" name="Modules">
    <mxGraphModel dx="989" dy="502" grid="1" gridSize="10" guides="1" tooltips="1" connect="1" arrows="1" fold="1" page="1" pageScale="1" pageWidth="850" pageHeight="1100" math="0" shadow="0">
      <root>
        <mxCell id="0" />
        <mxCell id="1" parent="0" />
        <mxCell id="ekkDbvhc1gMDYM6C8EfI-4" value="group chat" style="shape=module;align=left;spacingLeft=20;align=center;verticalAlign=top;whiteSpace=wrap;html=1;" vertex="1" parent="1">
          <mxGeometry x="440" y="40" width="100" height="50" as="geometry" />
        </mxCell>
        <mxCell id="vFNFzE0KBSmab2YzDtdy-1" value="private chat" style="shape=module;align=left;spacingLeft=20;align=center;verticalAlign=top;whiteSpace=wrap;html=1;" vertex="1" parent="1">
          <mxGeometry x="600" y="40" width="100" height="50" as="geometry" />
        </mxCell>
        <mxCell id="_eqvlGEzNTlYTe9ZsjLy-1" value="contacts" style="shape=module;align=left;spacingLeft=20;align=center;verticalAlign=top;whiteSpace=wrap;html=1;" vertex="1" parent="1">
          <mxGeometry x="730" y="40" width="100" height="50" as="geometry" />
        </mxCell>
      </root>
    </mxGraphModel>
  </diagram>
</mxfile>
